<?xml version="1.0" encoding="UTF-8" standalone="no"?>
<svg
   xmlns:dc="http://purl.org/dc/elements/1.1/"
   xmlns:cc="http://creativecommons.org/ns#"
   xmlns:rdf="http://www.w3.org/1999/02/22-rdf-syntax-ns#"
   xmlns:svg="http://www.w3.org/2000/svg"
   xmlns="http://www.w3.org/2000/svg"
   xmlns:sodipodi="http://sodipodi.sourceforge.net/DTD/sodipodi-0.dtd"
   xmlns:inkscape="http://www.inkscape.org/namespaces/inkscape"
   aria-hidden="true"
   focusable="false"
   data-prefix="fas"
   data-icon="biking"
   class="svg-inline--fa fa-biking fa-w-20"
   role="img"
   viewBox="0 0 256 256"
   version="1.1"
   id="svg876"
   sodipodi:docname="icon.svg"
   width="256"
   height="256"
   inkscape:version="0.92.3 (2405546, 2018-03-11)"
   inkscape:export-filename="/home/andrew/Github/oled-bike-computer/icons/icon-72x72.png"
   inkscape:export-xdpi="27"
   inkscape:export-ydpi="27">
  <metadata
     id="metadata882">
    <rdf:RDF>
      <cc:Work
         rdf:about="">
        <dc:format>image/svg+xml</dc:format>
        <dc:type
           rdf:resource="http://purl.org/dc/dcmitype/StillImage" />
        <dc:title />
      </cc:Work>
    </rdf:RDF>
  </metadata>
  <defs
     id="defs880">
    <clipPath
       clipPathUnits="userSpaceOnUse"
       id="clipPath844">
      <circle
         style="opacity:1;fill:#ffffff;fill-opacity:1;stroke:none;stroke-width:8.427948;stroke-linecap:round;stroke-linejoin:round;stroke-miterlimit:4;stroke-dasharray:none;stroke-opacity:0.32000002;paint-order:stroke fill markers"
         id="circle846"
         cx="128"
         cy="128"
         r="128" />
    </clipPath>
  </defs>
  <sodipodi:namedview
     pagecolor="#ffffff"
     bordercolor="#666666"
     borderopacity="1"
     objecttolerance="10"
     gridtolerance="10"
     guidetolerance="10"
     inkscape:pageopacity="0"
     inkscape:pageshadow="2"
     inkscape:window-width="1870"
     inkscape:window-height="1021"
     id="namedview878"
     showgrid="false"
     inkscape:measure-start="0,0"
     inkscape:measure-end="0,0"
     inkscape:zoom="1.8271529"
     inkscape:cx="87.986147"
     inkscape:cy="121.60177"
     inkscape:window-x="50"
     inkscape:window-y="31"
     inkscape:window-maximized="1"
     inkscape:current-layer="svg876" />
  <g
     id="g842"
     clip-path="url(#clipPath844)"
     transform="matrix(0.98717267,0,0,0.98717267,1.6418982,1.6418961)">
    <rect
       y="4.2915344e-06"
       x="0"
       height="256"
       width="256"
       id="rect1545"
       style="opacity:1;fill:#7cb5ff;fill-opacity:1;stroke:none;stroke-width:1.87606215;stroke-linecap:round;stroke-linejoin:bevel;stroke-miterlimit:4;stroke-dasharray:none;stroke-opacity:0.32000002;paint-order:stroke fill markers" />
    <path
       id="path1543"
       d="M 157.47656,50.335938 150.88477,156.83398 98.257812,205.5625 148.69531,256 H 256 V 148.86133 Z"
       style="fill:#000000;fill-opacity:0.33830848;fill-rule:evenodd;stroke:none;stroke-width:1px;stroke-linecap:butt;stroke-linejoin:bevel;stroke-opacity:1"
       inkscape:connector-curvature="0" />
    <ellipse
       ry="45.699516"
       rx="48.436012"
       cy="126.56365"
       cx="128.34175"
       id="path1551"
       style="opacity:1;fill:#ebebeb;fill-opacity:1;stroke:none;stroke-width:1.84940255;stroke-linecap:round;stroke-linejoin:bevel;stroke-miterlimit:4;stroke-dasharray:none;stroke-opacity:0.32000002;paint-order:stroke fill markers" />
    <rect
       y="51.309956"
       x="100.70312"
       height="29.006878"
       width="54.729958"
       id="rect1547"
       style="opacity:1;fill:#239b44;fill-opacity:1;stroke:none;stroke-width:2;stroke-linecap:round;stroke-linejoin:bevel;stroke-miterlimit:4;stroke-dasharray:none;stroke-opacity:0.32000002;paint-order:stroke fill markers" />
    <rect
       style="opacity:1;fill:#239b44;fill-opacity:1;stroke:none;stroke-width:2;stroke-linecap:round;stroke-linejoin:bevel;stroke-miterlimit:4;stroke-dasharray:none;stroke-opacity:0.32000002;paint-order:stroke fill markers"
       id="rect1549"
       width="54.729958"
       height="29.006878"
       x="100.70312"
       y="173.30995" />
    <circle
       id="circle1524"
       r="49.013382"
       cy="128"
       cx="128"
       style="fill:none;stroke:#000000;stroke-width:14.00382423;stroke-linecap:round;stroke-linejoin:round" />
    <path
       id="path1528"
       d="m 159.57862,165.46023 -2.45067,26.81732 a 14.003824,14.003824 0 0 1 -14.00382,12.74348 H 112.80585 A 14.003824,14.003824 0 0 1 98.802027,192.27755 l -2.450669,-26.81732 m 0.07002,-74.920459 2.450669,-26.817322 a 14.003824,14.003824 0 0 1 13.933803,-12.74348 h 30.45832 a 14.003824,14.003824 0 0 1 14.00382,12.74348 l 2.45067,26.817322"
       inkscape:connector-curvature="0"
       style="fill:none;stroke:#000000;stroke-width:14.00382423;stroke-linecap:round;stroke-linejoin:round" />
    <path
       style="fill:currentColor;stroke-width:0.09271879"
       inkscape:connector-curvature="0"
       d="m 135.4175,111.16499 a 4.4505017,4.4505017 0 1 0 -4.4505,-4.4505 4.4505017,4.4505017 0 0 0 4.4505,4.4505 z m -0.37088,11.21898 a 2.9577293,2.9577293 0 0 0 1.85438,0.64903 h 5.93401 a 2.9670014,2.9670014 0 0 0 0,-5.934 h -4.89371 l -6.60343,-5.28497 a 2.961438,2.961438 0 0 0 -3.78385,0.0631 l -10.3845,8.90101 a 2.9670012,2.9670012 0 0 0 0.28558,4.72124 l 7.57791,5.05503 v 10.28066 a 2.9670012,2.9670012 0 0 0 5.93399,0 v -11.86806 a 2.9670012,2.9670012 0 0 0 -1.32125,-2.46817 l -3.83484,-2.55626 5.40087,-4.62852 z M 145.80201,126 a 11.868005,11.868005 0 1 0 11.868,11.86801 A 11.868005,11.868005 0 0 0 145.80201,126 Z m 0,17.80201 a 5.9340023,5.9340023 0 1 1 5.934,-5.934 5.9340023,5.9340023 0 0 1 -5.934,5.934 z M 110.198,126 A 11.868005,11.868005 0 1 0 122.066,137.86801 11.868005,11.868005 0 0 0 110.198,126 Z m 0,17.80201 a 5.9340023,5.9340023 0 1 1 5.934,-5.934 5.9340023,5.9340023 0 0 1 -5.934,5.934 z"
       id="path1585" />
    <rect
       ry="2.0259881"
       rx="2.0259881"
       y="117.5994"
       x="178.79364"
       height="20.801208"
       width="8.5139837"
       id="rect1601"
       style="opacity:1;fill:#000000;fill-opacity:1;stroke:none;stroke-width:2;stroke-linecap:round;stroke-linejoin:bevel;stroke-miterlimit:4;stroke-dasharray:none;stroke-opacity:1;paint-order:stroke fill markers" />
    <path
       inkscape:connector-curvature="0"
       id="path1626"
       d="m 100.85209,81.699434 c -0.0983,-0.01304 -0.20952,-0.01309 -0.33576,0.0022 -2.019788,0.243767 0.58478,3.319893 -1.385911,3.825212 -1.970695,0.505318 -1.167144,-3.445311 -3.055021,-2.687089 -1.887878,0.758223 1.425207,3.056615 -0.347551,4.054769 -1.772759,0.998152 -2.019838,-3.026343 -3.647146,-1.805338 -1.627307,1.221005 2.167351,2.582458 0.713339,4.005423 -1.454013,1.422967 -2.733495,-2.399731 -3.989333,-0.799153 -1.255839,1.600579 2.762135,1.933885 1.725958,3.68469 -1.036178,1.750806 -3.262417,-1.610412 -4.061204,0.260663 -0.798786,1.871075 3.16831,1.153615 2.620581,3.112945 -0.547729,1.959324 -3.566875,-0.711814 -3.854174,1.302244 -0.287299,2.01406 3.359091,0.2934 3.337138,2.32773 -0.02196,2.03433 -3.63025,0.23607 -3.386482,2.25587 0.243768,2.0198 3.319893,-0.58585 3.825212,1.38484 0.505318,1.9707 -3.445311,1.16822 -2.687089,3.05609 0.758223,1.88789 3.055542,-1.4252 4.053695,0.34756 0.998154,1.77276 -3.025269,2.01876 -1.804263,3.64607 1.221005,1.62731 2.582458,-2.16628 4.005423,-0.71227 1.422966,1.45402 -2.399733,2.7335 -0.799154,3.98934 1.600579,1.25583 1.933885,-2.76214 3.68469,-1.72596 1.750806,1.03618 -1.610412,3.26134 0.260663,4.06013 1.871076,0.79879 1.152542,-3.1683 3.111873,-2.62058 1.959336,0.54773 -0.711816,3.56795 1.302246,3.85525 2.01406,0.2873 0.29448,-3.35909 2.32881,-3.33714 2.03433,0.0219 0.23607,3.63025 2.25587,3.38648 2.01979,-0.24376 -0.58586,-3.32096 1.38484,-3.82628 1.97069,-0.50532 1.16714,3.44638 3.05502,2.68815 1.88788,-0.75822 -1.42413,-3.0566 0.34863,-4.05476 1.77275,-0.99816 2.01876,3.02634 3.64607,1.80534 1.62731,-1.22101 -2.16735,-2.58353 -0.71334,-4.0065 1.45401,-1.42297 2.73457,2.4008 3.9904,0.80023 1.25584,-1.60058 -2.76213,-1.93388 -1.72596,-3.6847 1.03619,-1.7508 3.26135,1.61042 4.06013,-0.26066 0.7988,-1.87107 -3.16831,-1.15361 -2.62057,-3.11294 0.54772,-1.95933 3.56794,0.71182 3.85524,-1.30224 0.2873,-2.01407 -3.35909,-0.29342 -3.33714,-2.32775 0.0219,-2.03433 3.63025,-0.23607 3.38648,-2.25586 -0.24376,-2.019786 -3.32096,0.58585 -3.82628,-1.384839 -0.50531,-1.970694 3.44532,-1.168216 2.68709,-3.056093 -0.75823,-1.887878 -3.05554,1.425207 -4.05369,-0.347551 -0.99816,-1.772759 3.02634,-2.019839 1.80533,-3.647146 -1.22101,-1.627307 -2.58353,2.167351 -4.0065,0.713339 -1.42296,-1.454013 2.40081,-2.733495 0.80024,-3.989333 -1.60059,-1.255839 -1.93496,2.762135 -3.68577,1.725958 -1.75081,-1.036179 1.61149,-3.261345 -0.25959,-4.060131 -1.87107,-0.798787 -1.15361,3.16831 -3.11295,2.620581 -1.95933,-0.547729 0.71182,-3.567948 -1.30225,-3.855248 -2.01405,-0.287299 -0.2934,3.359091 -2.32773,3.337139 -1.90718,-0.02058 -0.44598,-3.192995 -1.92011,-3.388627 z m 1.76779,6.914559 A 10.521058,10.521058 0 0 1 113.14082,99.13493 10.521058,10.521058 0 0 1 102.61988,109.65695 10.521058,10.521058 0 0 1 92.098937,99.13493 10.521058,10.521058 0 0 1 102.61988,88.613993 Z"
       style="opacity:1;fill:#000000;fill-opacity:1;stroke:none;stroke-width:1.09843433;stroke-linecap:round;stroke-linejoin:bevel;stroke-miterlimit:4;stroke-dasharray:none;stroke-opacity:1;paint-order:stroke fill markers" />
    <path
       style="opacity:1;fill:#000000;fill-opacity:1;stroke:none;stroke-width:0.80603462;stroke-linecap:round;stroke-linejoin:bevel;stroke-miterlimit:4;stroke-dasharray:none;stroke-opacity:1;paint-order:stroke fill markers"
       d="m 159.71866,94.087767 c -0.0721,-0.0096 -0.15375,-0.0096 -0.24638,0.0016 -1.48213,0.178877 0.42911,2.436149 -1.01699,2.806949 -1.4461,0.37081 -0.85646,-2.528177 -2.24178,-1.971791 -1.38533,0.556387 1.04582,2.242951 -0.25503,2.975401 -1.30086,0.73245 -1.48217,-2.22074 -2.67629,-1.32476 -1.19413,0.89598 1.5904,1.89501 0.52345,2.93919 -1.06696,1.044184 -2.00585,-1.76093 -2.92739,-0.58642 -0.92154,1.174514 2.02686,1.419094 1.26651,2.703844 -0.76034,1.28474 -2.39397,-1.18173 -2.98012,0.19127 -0.58615,1.373 2.32492,0.84653 1.92299,2.28429 -0.40193,1.43776 -2.61738,-0.52233 -2.8282,0.95559 -0.21082,1.47793 2.46491,0.2153 2.4488,1.7081 -0.0161,1.4928 -2.66389,0.17323 -2.48502,1.65537 0.17888,1.48213 2.43616,-0.4299 2.80696,1.0162 0.3708,1.4461 -2.52818,0.85724 -1.97179,2.24256 0.55638,1.38534 2.24216,-1.04581 2.97461,0.25504 0.73245,1.30086 -2.21995,1.48138 -1.32397,2.6755 0.89597,1.19413 1.89501,-1.58962 2.93919,-0.52266 1.04418,1.06696 -1.76093,2.00585 -0.58642,2.92739 1.17451,0.92153 1.41909,-2.02687 2.70384,-1.26652 1.28474,0.76035 -1.18173,2.39318 0.19127,2.97934 1.373,0.58615 0.84574,-2.32491 2.2835,-1.92299 1.43777,0.40192 -0.52233,2.61817 0.95559,2.82899 1.47793,0.21082 0.21609,-2.46491 1.70889,-2.4488 1.4928,0.0161 0.17323,2.66389 1.65537,2.48501 1.48213,-0.17887 -0.42991,-2.43693 1.0162,-2.80774 1.4461,-0.3708 0.85645,2.52897 2.24178,1.97258 1.38533,-0.55639 -1.04503,-2.24295 0.25583,-2.9754 1.30085,-0.73245 1.48137,2.22074 2.67549,1.32476 1.19413,-0.89598 -1.5904,-1.8958 -0.52345,-2.93998 1.06696,-1.04418 2.00664,1.76172 2.92817,0.58721 0.92154,-1.17451 -2.02686,-1.41908 -1.26651,-2.70384 0.76036,-1.28474 2.39319,1.18173 2.97933,-0.19128 0.58617,-1.37299 -2.32491,-0.84652 -1.92298,-2.28428 0.40192,-1.43776 2.61817,0.52234 2.82899,-0.95559 0.21082,-1.47793 -2.46491,-0.21531 -2.44881,-1.70811 0.0161,-1.4928 2.66389,-0.17323 2.48501,-1.65536 -0.17887,-1.48212 -2.43693,0.4299 -2.80773,-1.0162 -0.3708,-1.4461 2.52818,-0.85724 1.97179,-2.24257 -0.55639,-1.38533 -2.24216,1.04582 -2.97461,-0.25503 -0.73245,-1.30086 2.22074,-1.48217 1.32476,-2.676294 -0.89598,-1.19412 -1.8958,1.590414 -2.93998,0.52345 -1.04418,-1.06696 1.76172,-2.00585 0.58721,-2.92739 -1.17451,-0.92153 -1.41988,2.02687 -2.70463,1.26652 -1.28475,-0.76035 1.18252,-2.39319 -0.19048,-2.979338 -1.373,-0.586153 -0.84653,2.324918 -2.2843,1.922988 -1.43776,-0.40192 0.52234,-2.618169 -0.95559,-2.828991 -1.47792,-0.210821 -0.2153,2.464911 -1.7081,2.448801 -1.39949,-0.0151 -0.32726,-2.343028 -1.40898,-2.486583 z m 1.29721,5.073929 a 7.7203862,7.7203862 0 0 1 7.7203,7.720304 7.7203862,7.7203862 0 0 1 -7.7203,7.72109 7.7203862,7.7203862 0 0 1 -7.7203,-7.72109 7.7203862,7.7203862 0 0 1 7.7203,-7.720304 z"
       id="path1631"
       inkscape:connector-curvature="0" />
    <path
       inkscape:connector-curvature="0"
       id="path1633"
       d="m 120.69255,152.20376 c -0.083,-0.0115 -0.17699,-0.0115 -0.28362,0.002 -1.70615,0.20592 0.49397,2.80437 -1.1707,3.23121 -1.66468,0.42686 -0.98592,-2.91031 -2.58062,-2.26982 -1.59472,0.64048 1.20389,2.58197 -0.29358,3.42513 -1.49748,0.84315 -1.7062,-2.5564 -3.08081,-1.525 -1.37462,1.03141 1.83079,2.18144 0.60257,3.38344 -1.22823,1.20201 -2.30903,-2.02709 -3.36986,-0.67505 -1.06082,1.35203 2.33322,1.63358 1.45794,3.11252 -0.87526,1.47892 -2.75581,-1.36035 -3.43055,0.22018 -0.67475,1.58052 2.67632,0.97448 2.21364,2.62955 -0.46268,1.65508 -3.01299,-0.60128 -3.25567,1.10003 -0.24269,1.70131 2.83747,0.24784 2.81893,1.96627 -0.0185,1.71844 -3.06654,0.19942 -2.86063,1.90558 0.20592,1.70615 2.80438,-0.49488 3.23123,1.1698 0.42684,1.66467 -2.91031,0.98681 -2.26983,2.58151 0.64048,1.59473 2.58106,-1.20388 3.42422,0.29359 0.84316,1.49748 -2.55549,1.70529 -1.52408,3.0799 1.03139,1.37462 2.18143,-1.82989 3.38344,-0.60166 1.202,1.22823 -2.02709,2.30903 -0.67506,3.36986 1.35204,1.06081 1.63358,-2.33323 3.11252,-1.45795 1.47893,0.87527 -1.36035,2.7549 0.22018,3.42966 1.58053,0.67474 0.97357,-2.67632 2.62865,-2.21365 1.65508,0.46267 -0.60128,3.0139 1.10002,3.25659 1.70132,0.24268 0.24875,-2.83748 1.96719,-2.81893 1.71843,0.0185 0.19941,3.06653 1.90557,2.86061 1.70615,-0.20591 -0.49489,-2.80527 1.1698,-3.23212 1.66467,-0.42685 0.9859,2.91121 2.58062,2.27073 1.59472,-0.64049 -1.20298,-2.58197 0.2945,-3.42513 1.49747,-0.84316 1.70527,2.5564 3.07988,1.525 1.37462,-1.03141 -1.83078,-2.18235 -0.60257,-3.38436 1.22823,-1.202 2.30994,2.028 3.37076,0.67597 1.06083,-1.35203 -2.33322,-1.63357 -1.45794,-3.11252 0.87529,-1.47892 2.75491,1.36035 3.42965,-0.22019 0.67477,-1.58052 -2.67632,-0.97447 -2.21364,-2.62954 0.46267,-1.65508 3.01391,0.60129 3.25659,-1.10003 0.24269,-1.70132 -2.83748,-0.24785 -2.81894,-1.96629 0.0185,-1.71843 3.06653,-0.19941 2.86061,-1.90556 -0.2059,-1.70614 -2.80526,0.49488 -3.23211,-1.1698 -0.42685,-1.66467 2.91031,-0.98681 2.26982,-2.58153 -0.64049,-1.59472 -2.58106,1.2039 -3.42421,-0.29357 -0.84316,-1.49749 2.5564,-1.7062 1.52499,-3.08081 -1.03141,-1.37461 -2.18235,1.8308 -3.38435,0.60257 -1.20201,-1.22823 2.028,-2.30903 0.67596,-3.36986 -1.35203,-1.06082 -1.63449,2.33323 -3.11342,1.45795 -1.47894,-0.87527 1.36125,-2.75491 -0.21928,-3.42966 -1.58052,-0.67474 -0.97448,2.67633 -2.62956,2.21365 -1.65508,-0.46267 0.60129,-3.0139 -1.10003,-3.25659 -1.7013,-0.24268 -0.24784,2.83748 -1.96627,2.81893 -1.61102,-0.0174 -0.37673,-2.69717 -1.62195,-2.86242 z m 1.49328,5.84084 a 8.8873055,8.8873055 0 0 1 8.88721,8.88721 8.8873055,8.8873055 0 0 1 -8.88721,8.88811 8.8873055,8.8873055 0 0 1 -8.8872,-8.88811 8.8873055,8.8873055 0 0 1 8.8872,-8.88721 z"
       style="opacity:1;fill:#000000;fill-opacity:1;stroke:none;stroke-width:0.92786497;stroke-linecap:round;stroke-linejoin:bevel;stroke-miterlimit:4;stroke-dasharray:none;stroke-opacity:1;paint-order:stroke fill markers" />
  </g>
</svg>
